<svg xmlns="http://www.w3.org/2000/svg" xmlns:xlink="http://www.w3.org/1999/xlink" width="1520" height="680" viewBox="0 0 1520 680"><defs><style>.a,.c{fill:none;}.a{stroke:#707070;}.b{clip-path:url(#a);}.c{stroke:#b4b5cc;}</style><clipPath id="a"><rect class="a" width="1520" height="680" transform="translate(200 200)"/></clipPath></defs><g class="b" transform="translate(-200 -200)"><g transform="matrix(-0.966, 0.259, -0.259, -0.966, 1654.899, 584.605)"><path class="c" d="M6.842,9.223a21.654,21.654,0,0,0-4.09-2.462C.515,5.954-.641,5.1.368,4.226,1.444,3.29.2,2.906.1,2.053.049,1.552.111,1.4,1.988,1.2,4.775.911,7.27.406,10.559.11a20.832,20.832,0,0,1,9.159.97A18.244,18.244,0,0,1,22.132,2.3c1.033.694,1.43,1.3.7,2.038a23.658,23.658,0,0,1-8.357,5.121,8.674,8.674,0,0,1-2.812.489,7.15,7.15,0,0,1-1.394.006C8.547,9.833,7.741,9.776,6.842,9.223Z" transform="matrix(0.995, -0.105, 0.105, 0.995, 1256.269, 149.48)"/><g transform="translate(866.627 288.685)"><path class="c" d="M7.891,11.027A27.676,27.676,0,0,0,3.475,7.78C1.155,6.664-.116,5.552.7,4.533,1.577,3.441.3,2.9.053,1.85c-.145-.621-.112-.806,1.679-.941C4.387.7,6.721.214,9.861.035a17.835,17.835,0,0,1,9.075,1.689,21.926,21.926,0,0,1,2.572,1.64c1.126.9,1.621,1.67,1.049,2.538a17.06,17.06,0,0,1-7.2,5.838,6.154,6.154,0,0,1-2.645.447,5.674,5.674,0,0,1-1.354-.068C9.662,11.871,8.866,11.755,7.891,11.027Z" transform="translate(0 0)"/></g><g transform="translate(820.95 296.415)"><path class="c" d="M3.866,17.189c-.65-1.315-1.378-3.48-2.31-4.591C.289,11.094-.361,9.507.207,7.876.814,6.13.11,5.411.056,3.824c-.029-.932,0-1.218,1.068-1.587C2.7,1.7,4.108.757,5.968.2a4.6,4.6,0,0,1,5.178,1.805,16.237,16.237,0,0,1,1.364,2.286,5.068,5.068,0,0,1,.4,3.795,29.028,29.028,0,0,1-4.722,9.541c-.65.82-.835.626-1.592.917a1.262,1.262,0,0,1-.791.01C4.832,18.325,4.376,18.218,3.866,17.189Z" transform="translate(0 0)"/></g><g transform="translate(293.928 239.935)"><path class="c" d="M4.672,18.719C3.226,16.744,1.037,13.629.29,11.357-.719,8.281,1.067,6.189,3.149,5,5.381,3.723,5.793,2.4,7.308.851,8.2-.062,8.6-.222,9.705.283A13.844,13.844,0,0,0,14.9,1.317,3.163,3.163,0,0,1,18.168,3.84a10.411,10.411,0,0,1,.354,1.7,2.979,2.979,0,0,1-.442,2.722c-1.9,3.4-3.586,7.93-6.158,11.264-.781,1.019-1.412,1-2.519,1.349a2.053,2.053,0,0,1-1.267-.01C6.56,20.35,5.8,20.262,4.672,18.719Z" transform="translate(0 0)"/></g><g transform="translate(1208.359 286.207)"><path class="c" d="M1.512,18.807C4.157,14.051,8.417,6.718,12.319,3.1c5.275-4.906,11.172-3.237,15.51-.136C32.484,6.286,35.536,5.888,40.083,7.5c2.664.951,3.373,1.621,3.383,4.319A30.762,30.762,0,0,0,46.2,23.286c1.5,3.688.888,6.27-2.058,8.968a23.494,23.494,0,0,1-3.111,2.3c-2.189,1.417-2.412,1.912-5.921,1.635-8.633-.674-19.373.131-28.5-1.96-2.786-.641-3.344-1.922-5.071-3.839a4.6,4.6,0,0,1-1.16-2.577C-.032,24.145-.561,22.529,1.512,18.807Z" transform="translate(0 0)"/></g><g transform="translate(526.136 79.098)"><path class="c" d="M6.694,14.616C5.4,14.208,4.481,13.9,3.665,13.587A5.74,5.74,0,0,1,.04,7.545a11.445,11.445,0,0,1,.9-3.513A8.921,8.921,0,0,1,2.53,1.7,5.708,5.708,0,0,1,10.6,1.639l.058.053a5.73,5.73,0,0,0,7.018.781l.3-.194a5.8,5.8,0,0,1,5.911-.325,26.417,26.417,0,0,1,6.629,4.406c2.805,2.917,3.407,5.348,3.087,8.415a5.682,5.682,0,0,1-3.528,4.63A26.4,26.4,0,0,0,25,21.891a6.215,6.215,0,0,1-2.621,1.039c-2.14.3-4.091,1.485-5.979-.747C14.138,19.508,9.945,15.645,6.694,14.616Z" transform="translate(0 0)"/></g><path class="c" d="M19.412,21.4l1.175-4.892A21.336,21.336,0,0,1,41.081,0h.272A31.3,31.3,0,0,1,51.694,1.83,21.3,21.3,0,0,1,65.4,18.456l.252,1.5a21.531,21.531,0,0,0,10.075,14.86l1.567.951a21.371,21.371,0,0,1,9,25.983A48.316,48.316,0,0,1,80.5,72.334c-9.837,13.613-24,18.257-31.87,19.854a21.112,21.112,0,0,1-9.585-.311L15.18,85.6A21.26,21.26,0,0,1,2.723,76.7C.821,73.785-.66,70.844.3,69.864c1.912-1.946,15.68-38.8,18.359-46A22.019,22.019,0,0,0,19.412,21.4Z" transform="translate(1003.115 397.549)"/><path class="c" d="M39.214,12.939l2.538.883a11.393,11.393,0,0,1,7.682,11.764l-.015.141a16.6,16.6,0,0,1-1.524,5.4,11.368,11.368,0,0,1-9.556,6.4l-.811.058a11.5,11.5,0,0,0-8.43,4.562l-.587.781a11.409,11.409,0,0,1-14.282,3.4,25.815,25.815,0,0,1-5.319-3.635A27.69,27.69,0,0,1,.055,24.707,11.249,11.249,0,0,1,.73,19.631l4.6-12.346a11.361,11.361,0,0,1,5.387-6.149c1.65-.854,3.29-1.485,3.761-.922C15.41,1.33,34.259,10.6,37.943,12.4A12.114,12.114,0,0,0,39.214,12.939Z" transform="translate(565.229 166.25)"/><g transform="translate(71.056 94.441)"><path class="c" d="M23.164,7.051C24.615,5.309,25.683,4.066,26.683,3A9.625,9.625,0,0,1,38.364,1.218a19.032,19.032,0,0,1,4.873,3.635,14.969,14.969,0,0,1,2.611,3.936,9.577,9.577,0,0,1-5.032,12.569l-.121.053A9.593,9.593,0,0,0,35.03,31.8c.034.2.068.4.107.6a9.735,9.735,0,0,1-3.251,9.376c-3.548,2.955-7.3,6-11.05,7.483-6.313,2.5-10.458,1.888-15.02-.553a9.519,9.519,0,0,1-4.94-8.42,44.3,44.3,0,0,0-.631-9.459A10.548,10.548,0,0,1,.292,26.1c.9-3.519.3-7.294,4.96-8.8C10.842,15.49,19.5,11.433,23.164,7.051Z" transform="translate(0 0)"/></g><g transform="translate(1066.078 289.557)"><path class="c" d="M34.5,11.373c1.645.524,2.829.917,3.868,1.315A7.328,7.328,0,0,1,43,20.409,14.39,14.39,0,0,1,41.844,24.9a11.179,11.179,0,0,1-2.024,2.98A7.3,7.3,0,0,1,29.5,27.96l-.073-.073a7.329,7.329,0,0,0-8.969-.995c-.131.082-.262.165-.388.252a7.423,7.423,0,0,1-7.556.413c-3.111-1.645-6.343-3.412-8.473-5.629C.458,18.191-.309,15.09.1,11.169A7.259,7.259,0,0,1,4.612,5.248,33.995,33.995,0,0,0,11.1,2.074,8.015,8.015,0,0,1,14.444.744c2.742-.383,5.237-1.9,7.643.956C24.98,5.117,30.343,10.057,34.5,11.373Z" transform="translate(0 0)"/></g><g transform="translate(1283.032 200.737)"><path class="c" d="M42.186,13.907c2.019.641,3.465,1.121,4.731,1.607a8.971,8.971,0,0,1,5.669,9.449,17.577,17.577,0,0,1-1.412,5.489A13.791,13.791,0,0,1,48.7,34.1a8.921,8.921,0,0,1-12.618.1l-.092-.087A8.949,8.949,0,0,0,25.02,32.892c-.156.1-.315.2-.471.306a9.087,9.087,0,0,1-9.24.5c-3.8-2.014-7.755-4.174-10.361-6.887C.561,22.249-.375,18.454.119,13.66a8.884,8.884,0,0,1,5.518-7.24,41.107,41.107,0,0,0,7.934-3.883,9.857,9.857,0,0,1,4.1-1.626c3.349-.471,6.4-2.32,9.347,1.169C30.553,6.259,37.109,12.3,42.186,13.907Z" transform="translate(0 0)"/></g><g transform="translate(67.138 218.528)"><path class="c" d="M13.328,1.864l.02-.005A2.575,2.575,0,0,1,16.44,3.373a4.869,4.869,0,0,1,.378,1.563A5.641,5.641,0,0,1,16.1,7.862a2.665,2.665,0,0,1-1.485,1.281,8.821,8.821,0,0,0-2.873,1.995,2.569,2.569,0,0,0-.539.709,26.236,26.236,0,0,1-1.995,3.494,2.492,2.492,0,0,1-1.985,1.034A6.564,6.564,0,0,1,2.8,14.627C.706,12.744.444,11.06.036,8.7a2.635,2.635,0,0,1,.17-1.461A14.567,14.567,0,0,1,3.1,2.694,2.061,2.061,0,0,1,3.4,2.417C5.045,1.17,7.588-.019,9.315,0,11.1.025,12.678,2.053,13.328,1.864Z" transform="translate(0 0)"/></g><g transform="translate(1231.857 270.695)"><path class="c" d="M27.776,8.2l.034.01a4.468,4.468,0,0,1,3.242,5.023,8.21,8.21,0,0,1-.84,2.669,9.763,9.763,0,0,1-3.693,3.7,4.565,4.565,0,0,1-3.353.583,15.294,15.294,0,0,0-6.066.393,4.487,4.487,0,0,0-1.447.573,45.849,45.849,0,0,1-6.1,3.412,4.344,4.344,0,0,1-3.882-.247A11.394,11.394,0,0,1,.658,17.76C-.769,13.081.352,10.335,1.866,6.452A4.48,4.48,0,0,1,3.433,4.428,25.257,25.257,0,0,1,11.81.26,4.84,4.84,0,0,1,12.5.124c3.562-.388,8.42.126,10.968,1.708C26.112,3.472,26.636,7.9,27.776,8.2Z" transform="translate(0 0)"/></g><g transform="translate(1257.182 286.6)"><path class="c" d="M24.9,2l.01-.024C25.226.453,23.649-.338,21.286.138A16.876,16.876,0,0,0,18.321,1a21.334,21.334,0,0,0-5.149,3,5.2,5.2,0,0,0-1.937,2.465,14.581,14.581,0,0,1-2.863,4.392A7.249,7.249,0,0,1,7.227,11.95c-2.033,1.558-4.076,3.077-5.843,4.707C.35,17.609-.16,18.642.044,19.419c.442,1.65,2.106,2.64,4.412,2.965,4.023.568,7.182-.5,11.618-1.961A10.044,10.044,0,0,0,18.7,19.1a44.706,44.706,0,0,0,7.512-6.411,5.508,5.508,0,0,0,.417-.514c1.83-2.591,3.3-6.027,2.786-7.707C28.881,2.739,24.736,2.792,24.9,2Z" transform="translate(0 0)"/></g><g transform="translate(19.778 128.736)"><path class="c" d="M46.115,37.683c1.437,5.12,5.363,3.174,7.435,7.075.131,3.951-.68,9.085-3.684,11.895-4.174,3.907-8.546,4.887-13.918,5.5-4.926-5.654-9.361-11.4-13.976-17.286-6.9-4.683-14.1-8.313-21.242-12.453a8.794,8.794,0,0,1-.582-5.023C1.186,22.4,5.7,20.139,9.684,15.99c2.465-2.577,5.586-6.9,7.406-14.219,1.568-1,4.091-2.257,6.62-1.577,5.581,1.5,5.964,11,10.846,11.846,1.267.219,3.329-.058,6.353-3.1C48.663,5.735,54.453,12,53.919,18.8S44.679,32.562,46.115,37.683Z" transform="translate(0 0)"/></g><path class="c" d="M26.861,23.375,20.6,30.15a5.9,5.9,0,0,1-8.071.563L2.168,22.25a5.91,5.91,0,0,1-2.145-5.1L1.077,5.56A5.9,5.9,0,0,1,6.648.2L10.3.008a5.91,5.91,0,0,1,4.479,1.718L26.409,13.349a5.887,5.887,0,0,1,1.66,3.266l.291,1.844A5.911,5.911,0,0,1,26.861,23.375Z" transform="translate(844.488 240.655)"/><path class="c" d="M19.031,58.949,4.161,45.205A12.952,12.952,0,0,1,2.924,27.5L21.5,4.761A12.962,12.962,0,0,1,32.7.053L58.131,2.358A12.948,12.948,0,0,1,69.9,14.593l.417,8.017a12.962,12.962,0,0,1-3.776,9.827l-25.5,25.522A13.015,13.015,0,0,1,33.871,61.6l-4.052.631A12.967,12.967,0,0,1,19.031,58.949Z" transform="translate(836.795 158.433)"/><path class="c" d="M8.154,25.258,1.783,19.37a5.55,5.55,0,0,1-.53-7.588L9.211,2.04A5.554,5.554,0,0,1,14.01.023l10.9.988a5.548,5.548,0,0,1,5.043,5.242l.179,3.435A5.555,5.555,0,0,1,28.512,13.9L17.584,24.834A5.577,5.577,0,0,1,14.513,26.4l-1.736.27A5.556,5.556,0,0,1,8.154,25.258Z" transform="translate(1344.758 246.529)"/><g transform="translate(1187.043 245.037)"><path class="c" d="M73,7.873C67.48,5.4,56.988,2.525,51.174,1.229,43.307-.523,35.241-.615,30.131,2.36c-5.474,3.188-10.3,1.359-16.549,2.033-3.659.4-5.061.573-5.688,3.266-.932,4-4.208,7.056-6.852,11.332S.8,27.818,7.948,30.444a87.849,87.849,0,0,0,8.6,2.7c5.028,1.194,8.4,1.636,13.948.364C44.161,30.381,60.545,27.29,72,21.771c3.489-1.679,3.722-2.5,5.091-4.668a5.25,5.25,0,0,0,.66-2.606C77.851,11.469,77.322,9.8,73,7.873Z" transform="translate(0 0)"/></g><g transform="translate(691.704 351.022)"><path class="c" d="M9.694,43.1c-1.631-3.3-3.45-8.721-5.795-11.507C.731,27.823-.905,23.834.517,19.753,2.046,15.375.274,13.575.148,9.591.071,7.252.158,6.533,2.817,5.616c3.955-1.359,7.488-3.722,12.147-5.1A11.51,11.51,0,0,1,27.946,5.039a41.642,41.642,0,0,1,3.426,5.727c1.461,3.237,2.024,6.061.995,9.517-2.533,8.507-6.513,17.189-11.841,23.935-1.626,2.053-2.092,1.567-3.989,2.291a3.179,3.179,0,0,1-1.98.029C12.116,45.949,10.97,45.682,9.694,43.1Z" transform="translate(0 0)"/></g><g transform="translate(251.055 0)"><path class="c" d="M72.8,39.183c-5.571,2.761-14.734,5.833-19.441,9.788-6.367,5.353-13.1,8.115-20,5.712-7.391-2.577-10.434.413-17.165.631-3.945.126-5.163-.019-6.712-4.513C7.189,44.123,3.2,38.149.87,30.282A19.446,19.446,0,0,1,8.514,8.352a69.764,69.764,0,0,1,9.672-5.785C23.646.1,28.416-.85,34.259.888c14.37,4.275,29.036,11,40.426,20,3.47,2.747,2.65,3.533,3.873,6.736a5.4,5.4,0,0,1,.049,3.343C77.616,35.1,77.155,37.028,72.8,39.183Z" transform="translate(0 0)"/></g><g transform="translate(74.779 182.225)"><path class="c" d="M4.7,18.73C3.251,16.76,1.048,13.654.3,11.383-.724,8.311,1.058,6.21,3.134,5.016,5.362,3.734,5.765,2.41,7.274.852,8.162-.06,8.565-.221,9.672.279a13.861,13.861,0,0,0,5.2,1.014A3.164,3.164,0,0,1,18.15,3.808a10.419,10.419,0,0,1,.359,1.7,2.993,2.993,0,0,1-.437,2.723c-1.888,3.4-3.557,7.944-6.115,11.288-.781,1.019-1.412,1.009-2.514,1.354a2.072,2.072,0,0,1-1.272,0C6.595,20.356,5.838,20.269,4.7,18.73Z" transform="translate(0 0)"/></g><g transform="translate(943.489 291.185)"><path class="c" d="M5.071,20.311C3.5,18.171,1.126,14.788.315,12.323c-1.1-3.339.844-5.61,3.1-6.9C5.838,4.039,6.284,2.607,7.925.923c.966-.99,1.407-1.165,2.606-.616a14.978,14.978,0,0,0,5.634,1.121A3.436,3.436,0,0,1,19.718,4.17,10.885,10.885,0,0,1,20.1,6.014a3.226,3.226,0,0,1-.48,2.956c-2.058,3.683-3.887,8.609-6.678,12.225-.849,1.1-1.533,1.092-2.732,1.466a2.265,2.265,0,0,1-1.378-.01C7.119,22.082,6.294,21.985,5.071,20.311Z" transform="translate(0 0)"/></g><g transform="translate(995.432 274.209)"><path class="c" d="M.737,9.173c1.291-2.32,3.368-5.9,5.27-7.663,2.572-2.393,5.445-1.577,7.561-.063,2.271,1.621,3.756,1.427,5.974,2.213,1.3.461,1.645.791,1.65,2.106a15.005,15.005,0,0,0,1.334,5.586,3.443,3.443,0,0,1-1,4.378,11.3,11.3,0,0,1-1.514,1.116,3.252,3.252,0,0,1-2.887.8c-4.208-.33-9.444.063-13.9-.956-1.354-.311-1.626-.937-2.47-1.873A2.266,2.266,0,0,1,.184,13.56C-.015,11.774-.273,10.983.737,9.173Z" transform="translate(0 0)"/></g><g transform="translate(1308.538 280.635)"><path class="c" d="M4.673,18.719C3.226,16.744,1.038,13.629.29,11.357-.719,8.28,1.067,6.189,3.149,5,5.381,3.724,5.789,2.4,7.308.851,8.191-.062,8.6-.222,9.7.283A13.843,13.843,0,0,0,14.9,1.317,3.163,3.163,0,0,1,18.169,3.84a10.452,10.452,0,0,1,.354,1.7,3,3,0,0,1-.446,2.723c-1.9,3.4-3.581,7.93-6.154,11.264-.781,1.019-1.412,1-2.519,1.349a2.054,2.054,0,0,1-1.267-.01C6.56,20.35,5.8,20.263,4.673,18.719Z" transform="translate(0 0)"/></g><g transform="translate(81.78 197.575)"><path class="c" d="M7.146,28.624C4.937,25.605,1.584,20.84.443,17.365c-1.543-4.7,1.189-7.9,4.373-9.721C8.228,5.693,8.859,3.675,11.173,1.3c1.354-1.393,1.975-1.64,3.669-.874A21,21,0,0,0,22.777,2.01c2.737.126,4.174,1.252,5.008,3.863a15.638,15.638,0,0,1,.538,2.6c.257,1.771.5,2.058-.679,4.169-2.9,5.193-5.479,12.128-9.41,17.223-1.2,1.558-2.16,1.538-3.848,2.062a3.173,3.173,0,0,1-1.946-.014C10.033,31.118,8.873,30.982,7.146,28.624Z" transform="translate(0 0)"/></g><g transform="translate(0 231.989)"><path class="c" d="M4.672,18.716C3.226,16.745,1.037,13.63.29,11.354-.719,8.282,1.067,6.185,3.149,5,5.381,3.725,5.789,2.4,7.307.852,8.191-.061,8.6-.221,9.705.279A13.75,13.75,0,0,0,14.9,1.313a3.172,3.172,0,0,1,3.271,2.528,10.464,10.464,0,0,1,.354,1.7,3.007,3.007,0,0,1-.446,2.727c-1.9,3.4-3.581,7.93-6.154,11.264-.781,1.019-1.412,1-2.519,1.349a2.053,2.053,0,0,1-1.267-.009C6.56,20.351,5.8,20.259,4.672,18.716Z" transform="translate(0 0)"/></g><g transform="translate(260.034 145.144)"><path class="c" d="M11.834,29.619c-1.14-3.368-2.431-6.925-6.066-8.109A7.99,7.99,0,0,1,.313,11.527,36.468,36.468,0,0,1,4.147,2.146C5.21.234,6.38-.174,8.845.059,12.5.4,17.411.928,21.249,1.282s6.12,2.121,8.008,5.329a9.82,9.82,0,0,1,1.2,3.276c.412,2.2.621,2.669-.447,5.139-2.625,6.086-5.42,13.739-9.614,19.058-1.281,1.621-1.961,1.1-3.552,1.359a1.681,1.681,0,0,1-1.495-.665C13.679,33.03,12.732,32.249,11.834,29.619Z" transform="translate(0 0)"/></g><g transform="translate(887.212 302.947)"><path class="c" d="M7.576,13.329c-1.4-.951-3.213-2.693-4.7-3.552A5.46,5.46,0,0,1,.068,4.458,14.022,14.022,0,0,1,1.374.683C1.738-.123,2.126-.1,2.82.163,3.853.556,4.533.911,5.64.469A3.367,3.367,0,0,1,8.765.721a3.519,3.519,0,0,1,.946.864,2.647,2.647,0,0,1,1,1.854c.456,2.868,1.558,6.285,1.548,9.313,0,.927-.417.966-.946,1.509a.765.765,0,0,1-.752.175A6.924,6.924,0,0,1,7.576,13.329Z" transform="translate(0 0)"/></g><g transform="translate(45.074 187.33)"><path class="c" d="M16.117,28.352c-2.99-2.024-6.833-5.731-10-7.556C1.82,18.331-.641,13.245.145,9.479A29.917,29.917,0,0,1,2.926,1.457C3.693-.261,4.518-.213,6,.35c2.2.835,3.645,1.592,5.993.645a7.191,7.191,0,0,1,6.654.539,7.76,7.76,0,0,1,2.009,1.84c1.228,1.441,1.733,1.47,2.126,3.95.971,6.1,3.315,13.36,3.3,19.8,0,1.961-.893,2.043-2.019,3.2a1.6,1.6,0,0,1-1.592.369A14.628,14.628,0,0,1,16.117,28.352Z" transform="translate(0 0)"/></g><g transform="translate(983.002 277.116)"><path class="c" d="M12.874,22.644c-2.388-1.616-5.455-4.576-7.993-6.032C1.455,14.641-.51,10.579.115,7.57A23.888,23.888,0,0,1,2.338,1.164C2.949-.209,3.61-.17,4.794.281,6.551.946,7.706,1.552,9.579.8a5.744,5.744,0,0,1,5.314.427,6.194,6.194,0,0,1,1.6,1.47c.985,1.15,1.388,1.174,1.7,3.154.772,4.872,2.645,10.677,2.63,15.821,0,1.567-.713,1.635-1.611,2.562a1.286,1.286,0,0,1-1.271.291A11.635,11.635,0,0,1,12.874,22.644Z" transform="translate(0 0)"/></g><g transform="translate(973.951 129.488)"><path class="c" d="M32.691,23.907c-4.048.781-10.148.888-14.181,1.98-5.459,1.475-11.56-.645-13.967-4.324A34.205,34.205,0,0,1,.312,12.842C-.46,10.828.249,10.207,1.9,9.465,4.35,8.363,6.131,7.8,7.262,5.146A8.2,8.2,0,0,1,13.07.205,8.736,8.736,0,0,1,16.182.069c2.154.165,2.586-.218,4.906,1.471,5.707,4.139,13.472,8.114,18.66,13.336,1.582,1.592.932,2.373.961,4.222a1.829,1.829,0,0,1-.99,1.582C37.321,22.272,35.855,23.3,32.691,23.907Z" transform="translate(0 0)"/></g><g transform="translate(551.768 86.941)"><path class="c" d="M40.679,24.851C36.4,26.9,28.439,29.068,24.984,32.717,20.3,37.658,12.866,41.04,8.862,36.547,4.567,31.732,3.767,28.806.894,24.6c-1.684-2.465-.665-3.237.417-5.392a46.274,46.274,0,0,0,3.96-10.1A12.334,12.334,0,0,1,10.512,1.43,7.149,7.149,0,0,1,13.948.324C16.6.013,17.151-.38,20.5.78,28.75,3.634,39.286,8.472,46.347,13.927c2.155,1.66,1.145,2.267,1.587,4.246a1.729,1.729,0,0,1-.728,1.771C44.939,22.1,44.027,23.249,40.679,24.851Z" transform="translate(0 0)"/></g><g transform="translate(301.651 227.938)"><path class="c" d="M3.93.4c1.383.481,3.7,1.907,5.144,1.762,1.956-.2,4.8.854,4.586,2.431-.228,1.694-1.354,1.757-1.388,3.13-.019.806-.393.67-.985.985a4.126,4.126,0,0,0-2.048,1.849A4.357,4.357,0,0,1,7.278,12.7a1.521,1.521,0,0,1-1.155.2c-.99-.2-1.145.209-2.32-.728C.916,9.868.358,5.248.018,1.691-.084.608.256.938.63.244.766-.013.945,0,1.207,0A7.681,7.681,0,0,1,3.93.4Z" transform="translate(0 0)"/></g><g transform="translate(986.927 306.21)"><path class="c" d="M3.93.4c1.383.476,3.7,1.9,5.144,1.757,1.956-.194,4.8.854,4.591,2.436-.228,1.689-1.359,1.757-1.393,3.13-.02.8-.388.67-.98.98a4.135,4.135,0,0,0-2.053,1.849A4.329,4.329,0,0,1,7.283,12.7a1.527,1.527,0,0,1-1.155.2c-.995-.194-1.15.213-2.324-.728C.916,9.87.358,5.245.018,1.692-.084.605.256.935.63.246.771-.011.946-.006,1.212,0A7.655,7.655,0,0,1,3.93.4Z" transform="translate(0 0)"/></g><g transform="translate(492.237 148.602)"><path class="c" d="M5.429,24.14C4.512,22.291,3.5,19.253,2.182,17.7.406,15.584-.506,13.347.29,11.061,1.144,8.61.154,7.6.081,5.368.037,4.063.086,3.66,1.576,3.146c2.218-.762,4.2-2.082,6.8-2.858a6.447,6.447,0,0,1,7.27,2.538,23.511,23.511,0,0,1,1.922,3.2,7.12,7.12,0,0,1,.553,5.333,40.8,40.8,0,0,1-6.629,13.4c-.912,1.15-1.174.883-2.237,1.286a1.766,1.766,0,0,1-1.107.014C6.783,25.736,6.142,25.581,5.429,24.14Z" transform="translate(0 0)"/></g><g transform="translate(300.421 79.267)"><g transform="translate(14.594 0)"><path class="c" d="M54.915,31.909c-5.877,13.258-11.851,29.186-21.45,39.964-2.926,3.247-4.3,3.363-7.857,4.455a13.2,13.2,0,0,1-4.271.345c-4.9-.3-7.561-1.024-10.463-5.576-3.659-5.838-7.7-16.68-9.449-22.639C-.957,40.348-.618,32.293,4.483,27.59c5.527-5.057,2.82-10.128,4.3-16.277.864-3.625,1.233-5,5.6-5.295C20.944,5.64,26.078,2.742,33.14.651c7.1-2.082,14.345.864,18.145,8.371a63.917,63.917,0,0,1,3.873,8.925C56.783,23.115,57.3,26.522,54.915,31.909ZM24.9,16.326A4.155,4.155,0,0,0,21.425,12.7c-1.772-.354-3.3-.155-4.844-.34-1-.189-1.169.039-1.533.835-.655,1.305-.35,2.208-1.577,3.411-1.17,1.068-1.315,2.66-.888,4.407.32,1.344-.015,3.407-.039,4.771a2.047,2.047,0,0,0,1.039,1.946,1.063,1.063,0,0,0,.655.3c.728.068.8.315,1.713-.087a26.736,26.736,0,0,0,7.891-5.862,4.459,4.459,0,0,0,1.223-3.3A13.3,13.3,0,0,0,24.9,16.326Z" transform="translate(0 0)"/></g><g transform="translate(0 12.086)"><g transform="translate(0 0)"><path class="c" d="M42.662,12.665C50.534,7.827,51.374,5.085,55.877,1.9A10.36,10.36,0,0,1,64.447.329c5.372,1.4,11.322,4.246,14.064,8.352,3.761,5.629,5.091,10.71,5.916,16.539.49,3.465-1.524,4.033-3.562,9.235-1.946,4.96-4.829,12.322-2.019,17.184,2.339,4.047,6.265,2.281,9.1,6.193,3.96,5.459.272,14.374-2.771,21.732-3.086,7.449-5.387,16.277-11.094,15.253-4.5-.806-9.216-2.354-13.229-1.529-13.87,2.844-16.107,15.282-26.876,3.135a10.543,10.543,0,0,1-1.733-2.635c-6.576-14.637-3.387-22.945-19.194-22.683a10.441,10.441,0,0,1-6.644-2.286C-2.713,61.613-1.111,49,5.071,38.119,12.016,25.895,32.889,18.678,42.662,12.665Z" transform="translate(0 0)"/><g transform="translate(47.014 36.112)"><path class="c" d="M17.6,6.026a24.5,24.5,0,0,0-1.955-3.2A6.469,6.469,0,0,0,8.378.27C5.772,1.057,3.8,2.391,1.584,3.163.128,3.663.046,4.046.118,5.371c.039,2.242,1.019,3.256.17,5.664-.723,2.082-.029,4.091,1.451,6.032a6.6,6.6,0,0,0,.481.626c1.272,1.577,2.315,4.6,3.218,6.43.743,1.48,1.368,1.587,2.747,1.956a1.682,1.682,0,0,0,1.077-.049c1.058-.393,1.325-.126,2.257-1.257a31.264,31.264,0,0,0,3.717-6.047,38.963,38.963,0,0,0,2.907-7.391A7.193,7.193,0,0,0,17.6,6.026Z" transform="translate(0 0)"/></g></g><g transform="translate(48.753 50.612)"><g transform="translate(0 0)"><path class="c" d="M13.5,4.225a11.609,11.609,0,0,0-.9-1.4A6.476,6.476,0,0,0,5.324.27,38.437,38.437,0,0,0,0,2.566a6.6,6.6,0,0,0,.481.626C1.752,4.769,2.8,7.788,3.7,9.622c.742,1.48,1.368,1.587,2.747,1.956a1.682,1.682,0,0,0,1.077-.049c1.058-.393,1.325-.126,2.257-1.257A31.267,31.267,0,0,0,13.5,4.225Z" transform="translate(0 0)"/></g></g></g></g><g transform="translate(645.783 91.882)"><g transform="translate(58.647 0)"><path class="c" d="M.438,55.568C2.316,43.431,5.6,24.592,11.013,13.876,18.346-.629,32.123-1.707,43.732,1.462c12.443,3.392,18.587.16,29.477.024,6.382-.082,8.4.786,10.531,6.493,3.169,8.478,8.692,15.467,14.758,22.1s6.78,12.574,2.655,20.591a51.259,51.259,0,0,1-4.785,7.284c-3.513,4.712-3.606,5.935-11.244,8.1C66.332,71.37,44.241,81.483,23.286,84.2c-6.387.83-8.57-1.451-13.724-4.15A10.488,10.488,0,0,1,5.087,75.5C1.351,68.065-1.027,65.056.438,55.568Z" transform="translate(0 0)"/></g><g transform="translate(0 26.18)"><g transform="translate(0 0)"><path class="c" d="M4.329,54.4c7.537-8.352,16.826-16.762,23.692-27.444C37.314,12.5,47.913,3.716,66.84,3.124c20.29-.636,45.089-5.537,65.2-1.621,11.783,2.29,17.117,7.478,20.674,19.062,5.28,17.2,10.182,40.076,13.681,58.241s-3.533,31.738-20.179,39.295a180.335,180.335,0,0,1-19.048,7.323c-10.337,3.13-17.607,3.281-27.851-2.193-25.2-13.462-52.995-29.157-80.1-36.165-8.26-2.135-8.41-3.363-12.865-8.041A23.121,23.121,0,0,1,2.6,73.206C-.723,66.359-1.563,60.928,4.329,54.4Z" transform="translate(0 0)"/></g><g transform="translate(44.951 22.909)"><path class="c" d="M53.253,16.952c-3.222-3.164-7.372-5.78-11.574-8.308-4.212-2.475-8.536-4.766-12.166-7.192C26.567-.47,25.936.059,23.058.088a12.017,12.017,0,0,0-4.237.495c-3.926,1.4-6.547,3.45-8.337,7.09C8.645,11.26,6.223,12.211,2.807,13.9.458,15.05-.547,15.933.293,18.5,1.7,22.815,2.03,24.6,5.053,29.449,7.9,34,15.944,36.136,23.432,33.647,29.013,31.764,37.268,31,42.805,29.556c.4-.112.752-.223,1.1-.34,3.562-1.092,5.591-2.514,8.706-4.668a2.911,2.911,0,0,0,1.514-2.155C54.248,19.966,55.224,18.889,53.253,16.952Z" transform="translate(0 0)"/></g><g transform="translate(83.78 31.553)"><path class="c" d="M14.425,8.308C11.2,5.144,7.054,2.528,2.851,0A9.535,9.535,0,0,1,1.584.519C.128,1.024.041,1.4.119,2.727.157,4.969,1.138,5.984.289,8.4c-.8,2.315.121,4.542,1.932,6.653,1.1,1.32,2,3.693,2.858,5.523,3.562-1.092,5.591-2.514,8.706-4.668A2.911,2.911,0,0,0,15.3,13.748C15.42,11.322,16.4,10.244,14.425,8.308Z" transform="translate(0 0)"/></g></g></g><g transform="translate(991.762 99.303)"><g transform="translate(103.336 68.552)"><path class="c" d="M5.429,24.135c-.918-1.844-1.936-4.882-3.247-6.445C.406,15.579-.506,13.347.29,11.061,1.144,8.61.154,7.6.081,5.369c-.044-1.311,0-1.713,1.495-2.223C3.789,2.384,5.769,1.059,8.38.287A6.451,6.451,0,0,1,15.65,2.82a23.617,23.617,0,0,1,1.922,3.208,7.1,7.1,0,0,1,.553,5.329,40.681,40.681,0,0,1-6.634,13.4c-.907,1.15-1.17.879-2.232,1.286a1.8,1.8,0,0,1-1.107.015C6.783,25.732,6.143,25.581,5.429,24.135Z" transform="translate(0 0)"/></g><g transform="translate(19.77 0)"><path class="c" d="M66.507,107.343c-9.841-2.222-25.23-9.264-33.218-13.627-10.813-5.9-18.81-14.583-18.4-24.765C15.332,58.041,7.33,55.581,2.481,47.7c-2.839-4.615-3.887-6.416.374-11.259,6.329-7.2,8.658-15.5,13.817-24.983S32.381-2.422,44.067,1.344A98.52,98.52,0,0,1,57.3,6.59c7.037,3.654,11.109,6.659,14.209,14.7C79.14,41.061,89.476,63.748,90.646,84.8c.354,6.411-.907,7.944-3.484,12.778a18.766,18.766,0,0,1-4.067,4.742C77.713,107.1,74.2,109.085,66.507,107.343Z" transform="translate(0 0)"/></g><g transform="translate(0 14.988)"><g transform="translate(0 0)"><path class="c" d="M65.464,9.432c8.988,2.14,11.521.8,16.956,1.728a10.367,10.367,0,0,1,7.173,4.95c2.815,4.79,5,11.007,4.043,15.85-1.32,6.644-3.979,11.176-7.517,15.879-2.1,2.8-3.926,1.776-9.046,4.014-4.882,2.13-12.127,5.295-13.579,10.72-1.208,4.518,2.815,6.042,2.058,10.812-1.063,6.664-9.973,10.361-17.33,13.409C40.772,89.88,32.9,94.5,29.59,89.734c-2.611-3.751-4.848-8.177-8.269-10.434C9.5,71.506-.877,78.718.1,62.509a10.661,10.661,0,0,1,.636-3.086c5.7-15,13.831-18.621,2.47-29.608A10.453,10.453,0,0,1,.123,23.5C-1.231,11.955,8.82,4.171,20.884.847,34.438-2.885,54.3,6.772,65.464,9.432Z" transform="translate(14.737 0)"/><path class="c" d="M12.893,1.858a21.977,21.977,0,0,0,3.339.34,2.042,2.042,0,0,1,1.413.975,4.912,4.912,0,0,1,.8,3.122,7.244,7.244,0,0,1-1.48,3.127c-.414.551-.773.35-1.782.79-.962.42-2.389,1.043-2.674,2.111-.238.89.554,1.19.405,2.129-.209,1.312-1.964,2.041-3.413,2.641-1.467.608-3.017,1.517-3.669.579A7.49,7.49,0,0,0,4.2,15.618C1.871,14.083-.173,15.5.019,12.311A2.1,2.1,0,0,1,.145,11.7C1.267,8.75,2.869,8.036.631,5.872A2.059,2.059,0,0,1,.024,4.628C-.243,2.355,1.737.822,4.113.167,6.783-.568,10.695,1.334,12.893,1.858Z" transform="translate(0 222.249)"/></g><g transform="translate(31.027 35.822)"><path class="c" d="M28.636,13.593a4.947,4.947,0,0,0-3.091-5.154c-.708-.257-1.461-.524-2.553-.864A14.436,14.436,0,0,1,18.784,5.1a29.591,29.591,0,0,1-4.077-3.975C13.126-.771,11.427.243,9.6.515a4.7,4.7,0,0,0-2.223.874,22.491,22.491,0,0,1-4.28,2.1A4.88,4.88,0,0,0,.052,7.45,8.266,8.266,0,0,0,2.668,14.6a21.917,21.917,0,0,0,5.658,3.732,4.806,4.806,0,0,0,5.042-.277c.1-.039.155-.082.257-.121a4.268,4.268,0,0,1,1.864-.66,4.772,4.772,0,0,1,4.12,1.3.048.048,0,0,0,.044.053,4.9,4.9,0,0,0,6.877-.058,9.422,9.422,0,0,0,1.349-1.975A9.876,9.876,0,0,0,28.636,13.593Z" transform="translate(0 0)"/></g><g transform="translate(79.987 21.753)"><path class="c" d="M11.933,1.078a1.346,1.346,0,0,0-.539-.553c-.616-.325-.884-.6-1.645-.5A15.787,15.787,0,0,0,7.313.554c-1.762.509-3.5,1.233-5.071,1.655a1.42,1.42,0,0,1-.214.063,1.841,1.841,0,0,0-1.15.922,5.121,5.121,0,0,0-.563.893,1.929,1.929,0,0,0,.3,2.475A8.415,8.415,0,0,1,2.421,9.236c.233.694.515.8,1.272.786,1.32-.029,2.043-.4,3.576.01a4.839,4.839,0,0,0,1.218.175,2.89,2.89,0,0,0,2.733-1.7,14.657,14.657,0,0,0,1.053-3.8c.082-.412.141-.844.213-1.218A3.159,3.159,0,0,0,11.933,1.078Z" transform="translate(0 0)"/></g><g transform="translate(46.206 40.923)"><path class="c" d="M13.457,8.493a4.947,4.947,0,0,0-3.092-5.154c-.708-.257-1.461-.524-2.553-.864A14.437,14.437,0,0,1,3.606,0,15.09,15.09,0,0,1,1.572.888c-1.456.5-1.538.883-1.466,2.2C.145,5.338,1.126,6.352.277,8.76a5.125,5.125,0,0,0,.034,3.416,4.772,4.772,0,0,1,4.12,1.3.048.048,0,0,0,.044.053,4.9,4.9,0,0,0,6.877-.058A9.42,9.42,0,0,0,12.7,11.492,9.876,9.876,0,0,0,13.457,8.493Z" transform="translate(0 0)"/></g><g transform="translate(87.301 21.753)"><path class="c" d="M4.62,1.078A1.346,1.346,0,0,0,4.081.524C3.465.2,3.2-.077,2.436.02A15.776,15.776,0,0,0,0,.554c.985.908,1.82.937,2.47,2.315A3.531,3.531,0,0,0,4.96,4.708c.082-.412.141-.844.213-1.218A3.159,3.159,0,0,0,4.62,1.078Z" transform="translate(0 0)"/></g></g></g></g></g></svg>