<svg xmlns="http://www.w3.org/2000/svg" width="204" height="204" viewBox="0 0 204 204"><defs><style>.a,.b,.c,.h{fill:none;}.a,.b,.c{stroke:#131ba3;stroke-dasharray:2 3;}.a,.b,.c,.d{stroke-linecap:round;}.a{opacity:0.2;}.b{opacity:0.1;}.c{opacity:0.05;}.d{fill:#f2f2fa;}.e{fill:#fff;}.f{fill:#47bf4c;}.g,.i,.j{stroke:none;}.i{fill:#9ba0f7;}.j{fill:#fff;}</style></defs><g transform="translate(-858 -267)"><g transform="translate(141 -70)"><g class="a" transform="translate(764 384)"><circle class="g" cx="55" cy="55" r="55"/><circle class="h" cx="55" cy="55" r="54.5"/></g><g class="b" transform="translate(742 362)"><circle class="g" cx="77" cy="77" r="77"/><circle class="h" cx="77" cy="77" r="76.5"/></g><g class="c" transform="translate(717 337)"><circle class="g" cx="102" cy="102" r="102"/><circle class="h" cx="102" cy="102" r="101.5"/></g></g><g class="d" transform="translate(934.99 345.031)"><path class="g" d="M 18.77838516235352 47.46927642822266 C 17.92153549194336 47.46927642822266 17.0108757019043 46.83730697631836 17.0108757019043 45.66609573364258 L 17.0108757019043 38.29970169067383 L 39.48411560058594 10.92791652679443 C 39.75263595581055 10.60235691070557 39.80858612060547 10.18521690368652 39.63306427001953 9.812926292419434 C 39.45294570922852 9.430866241455078 39.07091522216797 9.183996200561523 38.65980529785156 9.183996200561523 C 38.40340423583984 9.183996200561523 38.16099548339844 9.279186248779297 37.95879364013672 9.459286689758301 L 11.25859546661377 32.98315811157227 L 1.580785274505615 28.92390632629395 C 0.9635953307151794 28.66339683532715 0.5541853308677673 28.08604621887207 0.5133653283119202 27.4175968170166 C 0.4719253182411194 26.73907661437988 0.8146553039550781 26.12291717529297 1.430155277252197 25.76935577392578 L 44.88869476318359 0.7052164077758789 C 45.15975570678711 0.5485764145851135 45.44996643066406 0.4692664444446564 45.75162506103516 0.4692664444446564 C 46.26352691650391 0.4692664444446564 46.7702751159668 0.707086443901062 47.1071662902832 1.105446457862854 C 47.43716430664062 1.495656490325928 47.57088470458984 1.995746493339539 47.48369598388672 2.513616323471069 L 40.73283386230469 43.00626754760742 C 40.5886344909668 43.85457611083984 39.85984420776367 44.47138595581055 39.00018310546875 44.47138595581055 C 39.00012969970703 44.47138595581055 39.00008773803711 44.47138595581055 39.00003433227539 44.47138595581055 C 38.76918411254883 44.47136688232422 38.54258346557617 44.42507553100586 38.32650375366211 44.33380508422852 L 26.6425952911377 39.44043731689453 L 26.29937553405762 39.29669570922852 L 26.06313514709473 39.58418655395508 L 20.10936546325684 46.82960510253906 C 19.77136611938477 47.24232482910156 19.29886436462402 47.46927642822266 18.77838516235352 47.46927642822266 Z"/><path class="i" d="M 45.75156402587891 0.9692649841308594 L 45.7515754699707 0.9692649841308594 C 45.53891372680664 0.9692649841308594 45.33289337158203 1.026004791259766 45.13849639892578 1.138347625732422 L 1.679195404052734 26.20292663574219 C 1.034736633300781 26.57310676574707 0.9982147216796875 27.15438652038574 1.012435913085938 27.38711738586426 C 1.042034149169922 27.87185668945312 1.32757568359375 28.27430725097656 1.774173736572266 28.46281623840332 L 11.16310501098633 32.40090179443359 L 37.62863159179688 9.083778381347656 C 37.91924667358398 8.825958251953125 38.28533554077148 8.683998107910156 38.65980529785156 8.683998107910156 C 39.26351547241211 8.683998107910156 39.82306671142578 9.043437957763672 40.0853271484375 9.599704742431641 C 40.34162521362305 10.14333724975586 40.25877380371094 10.77451705932617 39.87054443359375 11.24519729614258 L 17.5108757019043 38.47866058349609 L 17.5108757019043 45.66609573364258 C 17.5108757019043 46.52164459228516 18.14851570129395 46.96927642822266 18.77838516235352 46.96927642822266 C 19.03856468200684 46.96927642822266 19.41347503662109 46.89019775390625 19.72306442260742 46.51216506958008 L 26.14931488037109 38.69176483154297 L 38.52107620239258 43.87321472167969 C 38.67528533935547 43.9383544921875 38.8364143371582 43.97138595581055 38.99998474121094 43.97138595581055 C 39.52753448486328 43.97138595581055 40.1229362487793 43.61054611206055 40.2396354675293 42.92402648925781 L 46.99062347412109 2.430576324462891 C 47.0705451965332 1.955924987792969 46.89050674438477 1.623577117919922 46.72540664672852 1.4283447265625 C 46.48230361938477 1.140888214111328 46.11825561523438 0.9692764282226562 45.75156402587891 0.9692649841308594 M 45.75163269042969 -0.03073501586914062 C 47.04934310913086 -0.03071212768554688 48.22465133666992 1.124240875244141 47.97674560546875 2.596614837646484 L 41.22602462768555 43.08847808837891 C 40.98224639892578 44.52257537841797 39.46333694458008 45.35678863525391 38.1319465637207 44.79439544677734 L 26.4494457244873 39.90162658691406 L 20.49567604064941 47.14704513549805 C 19.18304634094238 48.74985504150391 16.5108757019043 47.87814712524414 16.5108757019043 45.66609573364258 L 16.5108757019043 38.12073516845703 L 39.09767532348633 10.61063766479492 C 39.53834533691406 10.07636642456055 38.80701446533203 9.373390197753906 38.29133605957031 9.832668304443359 L 11.35407638549805 33.56540679931641 L 1.387386322021484 29.38498687744141 C -0.30029296875 28.67263603210449 -0.5159454345703125 26.31060600280762 1.181106567382812 25.33579635620117 L 44.63889694213867 0.2720870971679688 C 44.99956130981445 0.0636749267578125 45.38058471679688 -0.03073883056640625 45.75163269042969 -0.03073501586914062 Z"/></g><g transform="translate(71 46)"><circle class="e" cx="4" cy="4" r="4" transform="translate(915 364)"/><g class="f" transform="translate(907 356)"><path class="g" d="M 12 25.5 C 10.15254688262939 25.5 8.439713478088379 24.57864952087402 7.400715827941895 23.10959625244141 C 7.082935333251953 23.16492080688477 6.759377956390381 23.19272994995117 6.431369781494141 23.19272994995117 C 4.929669857025146 23.19272994995117 3.517499923706055 22.60757064819336 2.454969882965088 21.54504013061523 C 1.14786958694458 20.24283981323242 0.5875014662742615 18.38055419921875 0.8924336433410645 16.60492706298828 C 0.3653228282928467 16.23507690429688 -0.09670349210500717 15.77475929260254 -0.4747500121593475 15.23857021331787 C -1.145480036735535 14.28728008270264 -1.5 13.16740036010742 -1.5 12 C -1.5 10.83259963989258 -1.145480036735535 9.712719917297363 -0.4747500121593475 8.761429786682129 C -0.09722360968589783 8.225978851318359 0.3640967905521393 7.766158580780029 0.8903034329414368 7.396567821502686 C 0.7802824974060059 6.764644622802734 0.7792340517044067 6.115198612213135 0.8901500105857849 5.471610069274902 C 1.087919950485229 4.324039936065674 1.629029989242554 3.280900001525879 2.454969882965088 2.454969882965088 C 3.512200117111206 1.393749952316284 4.92425012588501 0.8082000017166138 6.428989887237549 0.8082000017166138 C 6.751983165740967 0.8082000017166138 7.075959205627441 0.8365958333015442 7.395263195037842 0.8921625018119812 C 7.765093803405762 0.3651212155818939 8.225297927856445 -0.09674350172281265 8.761429786682129 -0.4747500121593475 C 9.712719917297363 -1.145480036735535 10.83259963989258 -1.5 12 -1.5 C 13.16740036010742 -1.5 14.28728008270264 -1.145480036735535 15.23857021331787 -0.4747500121593475 C 15.77413463592529 -0.09714359045028687 16.23400115966797 0.3642406761646271 16.6036319732666 0.8905863761901855 C 16.92041969299316 0.8357720375061035 17.24300956726074 0.8082000017166138 17.56986045837402 0.8082000017166138 C 19.07135963439941 0.8082000017166138 20.48311042785645 1.39303994178772 21.54504013061523 2.454969882965088 C 22.37097930908203 3.280910015106201 22.91208076477051 4.324049949645996 23.10984992980957 5.471620082855225 C 23.22076606750488 6.115202903747559 23.21971702575684 6.764646053314209 23.10969734191895 7.396567821502686 C 23.63590240478516 7.766158580780029 24.09722328186035 8.225978851318359 24.47475051879883 8.761429786682129 C 25.14547920227051 9.712719917297363 25.5 10.83259963989258 25.5 12 C 25.5 13.16740036010742 25.14547920227051 14.28728008270264 24.47475051879883 15.23857021331787 C 24.09722328186035 15.77402114868164 23.63590240478516 16.23384094238281 23.10969734191895 16.60343170166016 C 23.21971702575684 17.23535346984863 23.22076606750488 17.88479614257812 23.10984992980957 18.52837944030762 C 22.91208076477051 19.67594909667969 22.37097930908203 20.71908950805664 21.54504013061523 21.54504013061523 C 20.48254013061523 22.60753059387207 19.07108116149902 23.19272994995117 17.57096672058105 23.19272994995117 C 17.5707836151123 23.19272994995117 17.57080268859863 23.19272994995117 17.57061958312988 23.19272994995117 C 17.24349212646484 23.19270896911621 16.92051887512207 23.16499900817871 16.60326766967773 23.10993194580078 C 16.23369598388672 23.63606834411621 15.77396488189697 24.09726333618164 15.23857021331787 24.47475051879883 C 14.28728008270264 25.14547920227051 13.16740036010742 25.5 12 25.5 Z"/><path class="j" d="M 12 0 C 10.23281002044678 0 8.723440170288086 1.110940933227539 8.137499809265137 2.676559448242188 C 6.618753433227539 1.98750114440918 4.762500762939453 2.264062881469727 3.515619277954102 3.515619277954102 C 2.264059066772461 4.767190933227539 1.987499237060547 6.618749618530273 2.676559448242188 8.137499809265137 C 1.110940933227539 8.723440170288086 0 10.23281002044678 0 12 C 0 13.76718997955322 1.110940933227539 15.27655982971191 2.676559448242188 15.86250019073486 C 1.987499237060547 17.38125038146973 2.264059066772461 19.23749923706055 3.515619277954102 20.4843692779541 C 4.76249885559082 21.73125076293945 6.614057540893555 22.01718902587891 8.137499809265137 21.32344055175781 C 8.723440170288086 22.88438034057617 10.23281002044678 24 12 24 C 13.76718997955322 24 15.27655982971191 22.88906097412109 15.86250019073486 21.32344055175781 C 17.3906192779541 22.01718902587891 19.23749923706055 21.73125076293945 20.4843692779541 20.4843692779541 C 21.73593902587891 19.23281097412109 22.01250076293945 17.38125038146973 21.32344055175781 15.86250019073486 C 22.88906097412109 15.27655982971191 24 13.76718997955322 24 12 C 24 10.23281002044678 22.88906097412109 8.723440170288086 21.32344055175781 8.137499809265137 C 22.01250076293945 6.618749618530273 21.73593902587891 4.767190933227539 20.4843692779541 3.515619277954102 C 19.23280906677246 2.264060974121094 17.38124847412109 1.987504959106445 15.86250019073486 2.676559448242188 C 15.27655982971191 1.110940933227539 13.76718997955322 0 12 0 M 10.70691776275635 16.16865730285645 C 10.57427024841309 16.16865730285645 10.44169521331787 16.11779594421387 10.34109020233154 16.01625061035156 L 6.791719436645508 12.43828010559082 C 6.591089248657227 12.23624992370605 6.592500686645508 11.90952968597412 6.794530868530273 11.70890998840332 L 8.014690399169922 10.49859046936035 C 8.216720581054688 10.29796981811523 8.543441772460938 10.29937076568604 8.744059562683105 10.50139999389648 L 10.71984004974365 12.49312019348145 L 15.27608966827393 7.973430633544922 C 15.47813034057617 7.772809982299805 15.80484008789062 7.774221420288086 16.00500106811523 7.976249694824219 L 17.21530914306641 9.196410179138184 C 17.41593933105469 9.398900032043457 17.41500091552734 9.725620269775391 17.21249961853027 9.925780296325684 L 11.06999969482422 16.0190601348877 C 10.96951484680176 16.11884880065918 10.83818054199219 16.16865730285645 10.70691776275635 16.16865730285645 M 12 -3 C 13.47856044769287 -3 14.89731979370117 -2.550699234008789 16.10293006896973 -1.700679779052734 C 16.52691268920898 -1.401742935180664 16.91342544555664 -1.061305999755859 17.25800704956055 -0.6851520538330078 C 17.36160087585449 -0.6895847320556641 17.46548080444336 -0.6917991638183594 17.56978988647461 -0.6917991638183594 C 19.47208023071289 -0.6917495727539062 21.26049995422363 0.04911041259765625 22.60569000244141 1.39430046081543 C 23.65188980102539 2.440500259399414 24.33737945556641 3.762319564819336 24.58806037902832 5.216859817504883 C 24.67564010620117 5.725044250488281 24.70805358886719 6.236103057861328 24.68621826171875 6.74296760559082 C 25.06191635131836 7.087284088134766 25.40204811096191 7.473518371582031 25.70067977905273 7.897069931030273 C 26.55069923400879 9.102680206298828 27 10.52143955230713 27 12 C 27 13.47856044769287 26.55069923400879 14.89731979370117 25.70067977905273 16.10293006896973 C 25.40204811096191 16.52648162841797 25.06191635131836 16.91271591186523 24.68621826171875 17.25703239440918 C 24.70805358886719 17.76389694213867 24.67564010620117 18.27495574951172 24.58806037902832 18.78314018249512 C 24.33737945556641 20.23768043518066 23.65188980102539 21.55949974060059 22.60568046569824 22.60569953918457 C 21.25986099243164 23.95153045654297 19.47172927856445 24.69272994995117 17.57069969177246 24.69272994995117 C 17.46584320068359 24.69272994995117 17.36138343811035 24.69048500061035 17.25723648071289 24.68599510192871 C 16.9128303527832 25.06184768676758 16.52662658691406 25.40194702148438 16.10293006896973 25.70067977905273 C 14.89731979370117 26.55069923400879 13.47856044769287 27 12 27 C 10.52157974243164 27 9.102319717407227 26.54974937438965 7.895650863647461 25.69791984558105 C 7.473344802856445 25.39980125427246 7.088199615478516 25.06058502197266 6.744640350341797 24.68600654602051 C 6.64061164855957 24.69048500061035 6.536128997802734 24.69272994995117 6.431369781494141 24.69272994995117 C 4.529010772705078 24.69272994995117 2.740150451660156 23.95153999328613 1.39430046081543 22.60569000244141 C 0.3480854034423828 21.56184005737305 -0.3373565673828125 20.24065971374512 -0.5881195068359375 18.7845401763916 C -0.6757221221923828 18.27586364746094 -0.7081165313720703 17.76426696777344 -0.6862297058105469 17.25702095031738 C -1.061929702758789 16.91270446777344 -1.402048110961914 16.52648162841797 -1.700679779052734 16.10293006896973 C -2.550699234008789 14.89731979370117 -3 13.47856044769287 -3 12 C -3 10.52143955230713 -2.550699234008789 9.102680206298828 -1.700679779052734 7.897069931030273 C -1.402048110961914 7.473518371582031 -1.061916351318359 7.087284088134766 -0.68621826171875 6.74296760559082 C -0.7080535888671875 6.236103057861328 -0.6756401062011719 5.725048065185547 -0.5880603790283203 5.216859817504883 C -0.3377113342285156 3.764194488525391 0.3464069366455078 2.443836212158203 1.39033317565918 1.398271560668945 L 1.390329360961914 1.398269653320312 C 2.733100891113281 0.05047035217285156 4.522529602050781 -0.6917991638183594 6.428989410400391 -0.6917991638183594 C 6.533145904541016 -0.6917991638183594 6.637468338012695 -0.6894607543945312 6.741682052612305 -0.684814453125 C 7.086353302001953 -1.061120986938477 7.472942352294922 -1.401641845703125 7.897069931030273 -1.700679779052734 C 9.102680206298828 -2.550699234008789 10.52143955230713 -3 12 -3 Z"/></g></g></g></svg>